[Header]
FileType HTR
DataType HTRS
FileVersion 1
NumSegments 64
NumFrames 3
DataFrameRate 30
EulerRotationOrder ZYX
CalibrationUnits mm
RotationUnits Degrees
GlobalAxisofGravity Y
BoneLengthAxis Y
ScaleFactor 1.0
[SegmentNames&Hierarchy]
Hips	GLOBAL
Spine	Hips
Spine1	Spine
Spine2	Spine1
Neck	Spine2
Head	Neck
LeftEye	Head
RightEye	Head
LeftShoulder	Spine2
LeftArm	LeftShoulder
LeftForeArm	LeftArm
LeftHand	LeftForeArm
LeftHandThumb1	LeftHand
LeftHandThumb2	LeftHandThumb1
LeftHandThumb3	LeftHandThumb2
LeftHandThumb4	LeftHandThumb3
LeftHandIndex1	LeftHand
LeftHandIndex2	LeftHandIndex1
LeftHandIndex3	LeftHandIndex2
LeftHandIndex4	LeftHandIndex3
LeftHandMiddle1	LeftHand
LeftHandMiddle2	LeftHandMiddle1
LeftHandMiddle3	LeftHandMiddle2
LeftHandMiddle4	LeftHandMiddle3
LeftHandRing1	LeftHand
LeftHandRing2	LeftHandRing1
LeftHandRing3	LeftHandRing2
LeftHandRing4	LeftHandRing3
LeftHandPinky1	LeftHand
LeftHandPinky2	LeftHandPinky1
LeftHandPinky3	LeftHandPinky2
LeftHandPinky4	LeftHandPinky3
RightShoulder	Spine2
RightArm	RightShoulder
RightForeArm	RightArm
RightHand	RightForeArm
RightHandPinky1	RightHand
RightHandPinky2	RightHandPinky1
RightHandPinky3	RightHandPinky2
RightHandPinky4	RightHandPinky3
RightHandRing1	RightHand
RightHandRing2	RightHandRing1
RightHandRing3	RightHandRing2
RightHandRing4	RightHandRing3
RightHandMiddle1	RightHand
RightHandMiddle2	RightHandMiddle1
RightHandMiddle3	RightHandMiddle2
RightHandMiddle4	RightHandMiddle3
RightHandIndex1	RightHand
RightHandIndex2	RightHandIndex1
RightHandIndex3	RightHandIndex2
RightHandIndex4	RightHandIndex3
RightHandThumb1	RightHand
RightHandThumb2	RightHandThumb1
RightHandThumb3	RightHandThumb2
RightHandThumb4	RightHandThumb3
LeftUpLeg	Hips
LeftLeg	LeftUpLeg
LeftFoot	LeftLeg
LeftToeBase	LeftFoot
RightUpLeg	Hips
RightLeg	RightUpLeg
RightFoot	RightLeg
RightToeBase	RightFoot
[BasePosition]
Hips	0	0	0	0	0	0	1
Spine	0	0	0	0	0	0	1
Spine1	0	0	0	0	0	0	1
Spine2	0	0	0	0	0	0	1
Neck	0	0	0	0	0	0	1
Head	0	0	0	0	0	0	1
LeftEye	0	0	0	0	0	0	1
RightEye	0	0	0	0	0	0	1
LeftShoulder	0	0	0	0	0	0	1
LeftArm	0	0	0	0	0	0	1
LeftForeArm	0	0	0	0	0	0	1
LeftHand	0	0	0	0	0	0	1
LeftHandThumb1	0	0	0	0	0	0	1
LeftHandThumb2	0	0	0	0	0	0	1
LeftHandThumb3	0	0	0	0	0	0	1
LeftHandThumb4	0	0	0	0	0	0	1
LeftHandIndex1	0	0	0	0	0	0	1
LeftHandIndex2	0	0	0	0	0	0	1
LeftHandIndex3	0	0	0	0	0	0	1
LeftHandIndex4	0	0	0	0	0	0	1
LeftHandMiddle1	0	0	0	0	0	0	1
LeftHandMiddle2	0	0	0	0	0	0	1
LeftHandMiddle3	0	0	0	0	0	0	1
LeftHandMiddle4	0	0	0	0	0	0	1
LeftHandRing1	0	0	0	0	0	0	1
LeftHandRing2	0	0	0	0	0	0	1
LeftHandRing3	0	0	0	0	0	0	1
LeftHandRing4	0	0	0	0	0	0	1
LeftHandPinky1	0	0	0	0	0	0	1
LeftHandPinky2	0	0	0	0	0	0	1
LeftHandPinky3	0	0	0	0	0	0	1
LeftHandPinky4	0	0	0	0	0	0	1
RightShoulder	0	0	0	0	0	0	1
RightArm	0	0	0	0	0	0	1
RightForeArm	0	0	0	0	0	0	1
RightHand	0	0	0	0	0	0	1
RightHandPinky1	0	0	0	0	0	0	1
RightHandPinky2	0	0	0	0	0	0	1
RightHandPinky3	0	0	0	0	0	0	1
RightHandPinky4	0	0	0	0	0	0	1
RightHandRing1	0	0	0	0	0	0	1
RightHandRing2	0	0	0	0	0	0	1
RightHandRing3	0	0	0	0	0	0	1
RightHandRing4	0	0	0	0	0	0	1
RightHandMiddle1	0	0	0	0	0	0	1
RightHandMiddle2	0	0	0	0	0	0	1
RightHandMiddle3	0	0	0	0	0	0	1
RightHandMiddle4	0	0	0	0	0	0	1
RightHandIndex1	0	0	0	0	0	0	1
RightHandIndex2	0	0	0	0	0	0	1
RightHandIndex3	0	0	0	0	0	0	1
RightHandIndex4	0	0	0	0	0	0	1
RightHandThumb1	0	0	0	0	0	0	1
RightHandThumb2	0	0	0	0	0	0	1
RightHandThumb3	0	0	0	0	0	0	1
RightHandThumb4	0	0	0	0	0	0	1
LeftUpLeg	0	0	0	0	0	0	1
LeftLeg	0	0	0	0	0	0	1
LeftFoot	0	0	0	0	0	0	1
LeftToeBase	0	0	0	0	0	0	1
RightUpLeg	0	0	0	0	0	0	1
RightLeg	0	0	0	0	0	0	1
RightFoot	0	0	0	0	0	0	1
RightToeBase	0	0	0	0	0	0	1
[Hips]
18	-974.9152222	1015.842957	17.83489037	3.843901396	-65.47492981	4.531929493	1.0
19	-1028.505981	1009.385315	19.95712662	2.551112652	-64.52922058	6.223239422	1.0
20	-1085.184692	994.9163818	21.41984749	0.3703936934	-62.98836517	8.707322121	1.0
[Spine]
18	0	101.8159943	1.315000057	5.816864491	5.944350243	-0.7698963881	1.0
19	0	101.8159943	1.315000057	5.606507778	4.711843491	-1.52398479	1.0
20	0	101.8159943	1.315000057	5.385879517	3.200443268	-2.601773262	1.0
[Spine1]
18	0	100.8349991	-10.00800037	4.196918488	4.546150208	-0.3821697235	1.0
19	0	100.8349991	-10.00800037	4.010085583	4.272359371	-0.4952338338	1.0
20	0	100.8349991	-10.00800037	3.76255846	3.868614197	-0.8339807987	1.0
[Spine2]
18	0	91	-13.73399925	4.184791088	4.562380791	-0.3539355695	1.0
19	0	91	-13.73399925	4.011573315	4.272838593	-0.4710547626	1.0
20	0	91	-13.73399925	3.778904438	3.850180626	-0.8206233978	1.0
[Neck]
18	0	166.7169952	-25.16200066	4.504660606	6.020653248	1.079984188	1.0
19	0	166.7169952	-25.16200066	4.171739101	6.076370239	1.26022768	1.0
20	0	166.7169952	-25.16200066	3.920861959	6.148933411	1.426567793	1.0
[Head]
18	0	96.17900085	16.84999847	-12.33131313	34.50996399	-12.66505909	1.0
19	0	96.17900085	16.84999847	-13.13694	34.7069664	-13.13733101	1.0
20	0	96.17900085	16.84999847	-14.02416515	34.85744095	-13.49509144	1.0
[LeftEye]
18	30.6760006	64.09500122	92.83599854	0	0	0	1.0
19	30.6760006	64.09500122	92.83599854	0	0	0	1.0
20	30.6760006	64.09500122	92.83599854	0	0	0	1.0
[RightEye]
18	-30.6760006	64.09500122	92.83499908	0	0	0	1.0
19	-30.6760006	64.09500122	92.83499908	0	0	0	1.0
20	-30.6760006	64.09500122	92.83499908	0	0	0	1.0
[LeftShoulder]
18	45.70400238	109.4599991	-26.28000069	0.1692990959	-0.1732900143	-9.440203667	1.0
19	45.70400238	109.4599991	-26.28000069	0.09621684998	-1.07659924	-9.29391861	1.0
20	45.70400238	109.4599991	-26.28000069	0.05495421588	-2.156481981	-9.253012657	1.0
[LeftArm]
18	105.923996	-5.24600029	-22.32099915	17.89990044	-9.914423943	-66.17275238	1.0
19	105.923996	-5.24600029	-22.32099915	17.69272995	-10.94433594	-65.48342896	1.0
20	105.923996	-5.24600029	-22.32099915	17.09390831	-11.87266064	-64.28308868	1.0
[LeftForeArm]
18	278.414978	-0.0009999999311	0	-3.953835403e-06	-16.58481026	-0.0002011521283	1.0
19	278.414978	-0.0009999999311	0	-2.236281205e-07	-19.07868004	-0.0001960315712	1.0
20	278.414978	-0.0009999999311	0	2.235319698e-06	-21.42477226	-0.00020520814	1.0
[LeftHand]
18	283.2879944	0	0	5.780985355	-8.367472649	-3.89125371	1.0
19	283.2879944	0	0	6.430558205	-8.720355034	-3.975918293	1.0
20	283.2879944	0	0	6.621745586	-9.01919651	-3.77660656	1.0
[LeftHandThumb1]
18	24.6609993	-15.75	26.8239994	30.58115005	-20.32058144	11.29641056	1.0
19	24.6609993	-15.75	26.8239994	30.58115005	-20.32058144	11.29641056	1.0
20	24.6609993	-15.75	26.8239994	30.58115005	-20.32058144	11.29641056	1.0
[LeftHandThumb2]
18	32.29800034	-18.64699936	18.64699936	10.83144474	20.52938652	-2.036993742	1.0
19	32.29800034	-18.64699936	18.64699936	12.0121994	20.0512619	-2.549423695	1.0
20	32.29800034	-18.64699936	18.64699936	13.2358532	19.58632088	-3.151381016	1.0
[LeftHandThumb3]
18	26.52600098	-15.31499958	15.31499958	-15.11128521	8.10604763	10.0120554	1.0
19	26.52600098	-15.31499958	15.31499958	-15.15962887	7.992468834	10.04631329	1.0
20	26.52600098	-15.31499958	15.31499958	-15.21490669	7.862387657	10.0847559	1.0
[LeftHandThumb4]
18	19.54599953	-11.28499985	11.28499985	0	0	0	1.0
19	19.54599953	-11.28499985	11.28499985	0	0	0	1.0
20	19.54599953	-11.28499985	11.28499985	0	0	0	1.0
[LeftHandIndex1]
18	91.09299469	-5.170999527	22.60099792	-1.373385668	-6.182217121	-24.67641068	1.0
19	91.09299469	-5.170999527	22.60099792	-1.556132793	-5.998779774	-26.9175396	1.0
20	91.09299469	-5.170999527	22.60099792	-1.764270544	-5.759668827	-29.43691635	1.0
[LeftHandIndex2]
18	36.76399994	0	0	-0.7214108706	2.81162405	-28.77600098	1.0
19	36.76399994	0	0	-0.7196744084	2.808470249	-28.74067307	1.0
20	36.76399994	0	0	-0.7156014442	2.801048517	-28.65753937	1.0
[LeftHandIndex3]
18	28.83100128	0	0	-0.2981673479	1.84266305	-18.38160515	1.0
19	28.83100128	0	0	-0.2970194519	1.839214563	-18.34593964	1.0
20	28.83100128	0	0	-0.2943253219	1.83109951	-18.26202965	1.0
[LeftHandIndex4]
18	23.92700005	0	0	0	0	0	1.0
19	23.92700005	0	0	0	0	0	1.0
20	23.92700005	0	0	0	0	0	1.0
[LeftHandMiddle1]
18	95.33399963	0	0	-2.609561443	1.874477029	-37.78756332	1.0
19	95.33399963	0	0	-2.693846941	1.995969772	-38.66244888	1.0
20	95.33399963	0	0	-2.776089907	2.159614801	-39.50903702	1.0
[LeftHandMiddle2]
18	36.98199844	0	0	-0.5501584411	2.474706411	-25.06366348	1.0
19	36.98199844	0	0	-0.5545051694	2.484015703	-25.16442108	1.0
20	36.98199844	0	0	-0.5594492555	2.494520903	-25.27842712	1.0
[LeftHandMiddle3]
18	29.50900078	0	0	-0.3832678497	2.081194639	-20.86699486	1.0
19	29.50900078	0	0	-0.3869789243	2.090886116	-20.96888733	1.0
20	29.50900078	0	0	-0.3911929727	2.101862669	-21.08420753	1.0
[LeftHandMiddle4]
18	28.3390007	0	0	0	0	0	1.0
19	28.3390007	0	0	0	0	0	1.0
20	28.3390007	0	0	0	0	0	1.0
[LeftHandRing1]
18	91.04499817	-0.4390000105	-18.65100098	-2.273701668	3.283430099	-34.15218353	1.0
19	91.04499817	-0.4390000105	-18.65100098	-2.369786263	3.010224819	-35.19941711	1.0
20	91.04499817	-0.4390000105	-18.65100098	-2.478107691	2.659016371	-36.37145233	1.0
[LeftHandRing2]
18	31.54000092	0	0	-0.8856483102	3.091511726	-31.96460152	1.0
19	31.54000092	0	0	-0.8800032735	3.082454443	-31.85984802	1.0
20	31.54000092	0	0	-0.8722234368	3.069922447	-31.71501732	1.0
[LeftHandRing3]
18	29.37700081	0	0	-0.9839527607	3.243528843	-33.74382019	1.0
19	29.37700081	0	0	-0.9779234529	3.234479427	-33.63703918	1.0
20	29.37700081	0	0	-0.9696028233	3.221951008	-33.48929214	1.0
[LeftHandRing4]
18	26.47500038	0	0	0	0	0	1.0
19	26.47500038	0	0	0	0	0	1.0
20	26.47500038	0	0	0	0	0	1.0
[LeftHandPinky1]
18	80.77799988	-4.887000084	-38.06099701	-1.972631216	2.567440033	-30.63987923	1.0
19	80.77799988	-4.887000084	-38.06099701	-2.013177395	1.743888617	-31.13355064	1.0
20	80.77799988	-4.887000084	-38.06099701	-2.038701534	1.024649262	-31.45744514	1.0
[LeftHandPinky2]
18	36	0	0	-0.4721960723	2.300802708	-23.19259071	1.0
19	36	0	0	-0.4774412215	2.313019037	-23.32306099	1.0
20	36	0	0	-0.484138906	2.328464985	-23.48838234	1.0
[LeftHandPinky3]
18	21.14200211	0	0	-0.5385543704	2.449785948	-24.79380417	1.0
19	21.14200211	0	0	-0.5447884202	2.463211298	-24.93910217	1.0
20	21.14200211	0	0	-0.5537219048	2.482319832	-25.14613724	1.0
[LeftHandPinky4]
18	19.75699997	0	0	0	0	0	1.0
19	19.75699997	0	0	0	0	0	1.0
20	19.75699997	0	0	0	0	0	1.0
[RightShoulder]
18	-45.70000076	109.4620056	-26.28000069	2.115231037	6.579399109	9.956846237	1.0
19	-45.70000076	109.4620056	-26.28000069	2.214929342	5.961195946	9.979390144	1.0
20	-45.70000076	109.4620056	-26.28000069	2.308274269	5.312547207	9.968532562	1.0
[RightArm]
18	-105.9280014	-5.248000145	-22.32099915	29.70786476	14.68359375	55.27612686	1.0
19	-105.9280014	-5.248000145	-22.32099915	28.5592308	10.34716892	54.84555817	1.0
20	-105.9280014	-5.248000145	-22.32099915	27.41769218	6.583683014	55.28268051	1.0
[RightForeArm]
18	-278.414978	0	0	-2.653145884e-06	19.71234894	-1.616096415e-05	1.0
19	-278.414978	0	0	-2.489413419e-06	22.24823189	-4.442561021e-06	1.0
20	-278.414978	0	0	2.298395884e-06	23.69788933	1.84554774e-05	1.0
[RightHand]
18	-283.2879944	0	0.0009999999311	-2.699637413	3.578197241	-3.293549538	1.0
19	-283.2879944	0	0.0009999999311	-3.673359394	3.522192478	-3.050219774	1.0
20	-283.2879944	0	0.0009999999311	-3.648390055	3.24999547	-2.761577368	1.0
[RightHandPinky1]
18	-80.76699829	-4.885000229	-38.06000137	-2.151470661	-4.13978529	35.54289627	1.0
19	-80.76699829	-4.885000229	-38.06000137	-2.155884743	-4.05775547	35.59854507	1.0
20	-80.76699829	-4.885000229	-38.06000137	-2.173076153	-3.911771059	35.81432343	1.0
[RightHandPinky2]
18	-36	0	0.0009999999311	-0.4052546322	-1.896149516	24.14575768	1.0
19	-36	0	0.0009999999311	-0.4022403955	-1.889398932	24.05440331	1.0
20	-36	0	0.0009999999311	-0.39771685	-1.879220963	23.91677475	1.0
[RightHandPinky3]
18	-21.14200211	0	0	-0.1797123998	-1.278801441	15.99848843	1.0
19	-21.14200211	0	0	-0.177605316	-1.271425605	15.90372849	1.0
20	-21.14200211	0	0	-0.1744545996	-1.260316133	15.76110554	1.0
[RightHandPinky4]
18	-19.75699997	0	0	0	0	0	1.0
19	-19.75699997	0	0	0	0	0	1.0
20	-19.75699997	0	0	0	0	0	1.0
[RightHandRing1]
18	-91.03599548	-0.4390000105	-18.65100098	-1.861292124	-6.453573704	31.89394951	1.0
19	-91.03599548	-0.4390000105	-18.65100098	-1.873345137	-6.516803265	32.05183792	1.0
20	-91.03599548	-0.4390000105	-18.65100098	-1.906134844	-6.593775749	32.47742844	1.0
[RightHandRing2]
18	-31.54000092	0	0	-0.3798747063	-1.838461757	23.34722328	1.0
19	-31.54000092	0	0	-0.3782616258	-1.834716201	23.29682922	1.0
20	-31.54000092	0	0	-0.3758327961	-1.829065561	23.22082901	1.0
[RightHandRing3]
18	-29.37700081	0	0	-0.2740001976	-1.570734143	19.78912354	1.0
19	-29.37700081	0	0	-0.2725971937	-1.566828609	19.73784447	1.0
20	-29.37700081	0	0	-0.270491153	-1.560950637	19.66070747	1.0
[RightHandRing4]
18	-26.47500038	0	0	0	0	0	1.0
19	-26.47500038	0	0	0	0	0	1.0
20	-26.47500038	0	0	0	0	0	1.0
[RightHandMiddle1]
18	-95.32500458	0	0	-1.753599048	-2.38749671	30.48078728	1.0
19	-95.32500458	0	0	-1.760281444	-2.588383198	30.56518555	1.0
20	-95.32500458	0	0	-1.784414053	-2.869194746	30.87849998	1.0
[RightHandMiddle2]
18	-36.98199844	0	0	-0.2394250631	-1.471132994	18.48650932	1.0
19	-36.98199844	0	0	-0.2396676689	-1.471862078	18.49601173	1.0
20	-36.98199844	0	0	-0.2401280105	-1.473241329	18.51398277	1.0
[RightHandMiddle3]
18	-29.50900078	0	0	-0.08574955165	-0.8899653554	11.03194904	1.0
19	-29.50900078	0	0	-0.08589857072	-0.8907277584	11.04153728	1.0
20	-29.50900078	0	0	-0.08617994934	-0.8921615481	11.05957794	1.0
[RightHandMiddle4]
18	-28.3390007	0	0.0009999999311	0	0	0	1.0
19	-28.3390007	0	0.0009999999311	0	0	0	1.0
20	-28.3390007	0	0.0009999999311	0	0	0	1.0
[RightHandIndex1]
18	-91.08300018	-5.167999744	22.60099792	-1.26129353	2.235451698	23.95406914	1.0
19	-91.08300018	-5.167999744	22.60099792	-1.281609058	2.086700201	24.18811607	1.0
20	-91.08300018	-5.167999744	22.60099792	-1.315404296	1.721402645	24.83912659	1.0
[RightHandIndex2]
18	-36.76399994	0	0	-0.1019503698	-0.9673219323	12.03247356	1.0
19	-36.76399994	0	0	-0.1022295132	-0.9686297774	12.04897785	1.0
20	-36.76399994	0	0	-0.1024834216	-0.969812572	12.06393528	1.0
[RightHandIndex3]
18	-28.83100128	0	0	-0.1060752571	-0.9864856601	12.27459526	1.0
19	-28.83100128	0	0	-0.1063616872	-0.9877995253	12.29119587	1.0
20	-28.83100128	0	0	-0.1066238508	-0.9889916182	12.30625057	1.0
[RightHandIndex4]
18	-23.92700005	0	0	0	0	0	1.0
19	-23.92700005	0	0	0	0	0	1.0
20	-23.92700005	0	0	0	0	0	1.0
[RightHandThumb1]
18	-24.64799881	-15.72700024	26.82600021	-0.1902875453	0.8218618631	0.3671384752	1.0
19	-24.64799881	-15.72700024	26.82600021	-0.1902875453	0.8218618631	0.3671384752	1.0
20	-24.64799881	-15.72700024	26.82600021	-0.1902875453	0.8218618631	0.3671384752	1.0
[RightHandThumb2]
18	-32.29800034	-18.64699936	18.64699936	14.52935982	-3.461137295	-19.59979057	1.0
19	-32.29800034	-18.64699936	18.64699936	15.39890575	-2.860984087	-19.18173409	1.0
20	-32.29800034	-18.64699936	18.64699936	16.51471329	-2.234106779	-18.56950951	1.0
[RightHandThumb3]
18	-26.52600098	-15.31399918	15.31399918	0.5827277303	6.190238476	-23.7013092	1.0
19	-26.52600098	-15.31399918	15.31399918	0.4760343134	6.449757099	-23.69593239	1.0
20	-26.52600098	-15.31399918	15.31399918	0.2509114742	6.990214825	-23.72889137	1.0
[RightHandThumb4]
18	-19.54599953	-11.28499985	11.28499985	0	0	0	1.0
19	-19.54599953	-11.28499985	11.28499985	0	0	0	1.0
20	-19.54599953	-11.28499985	11.28499985	0	0	0	1.0
[LeftUpLeg]
18	82.07800293	-67.51699829	-15.99599934	-14.58738422	7.973578453	0.7390545607	1.0
19	82.07800293	-67.51699829	-15.99599934	-11.20723152	8.636461258	1.804947257	1.0
20	82.07800293	-67.51699829	-15.99599934	-8.651071548	9.58577919	2.91319561	1.0
[LeftLeg]
18	0	-443.7049866	2.845999956	19.24266815	-8.375825882	-3.363547325	1.0
19	0	-443.7049866	2.845999956	18.38101959	-9.01872921	-3.52332449	1.0
20	0	-443.7049866	2.845999956	19.80500031	-9.277724266	-3.95375514	1.0
[LeftFoot]
18	0	-444.2789917	-29.8219986	-12.3830204	-5.100582123	-0.2862927914	1.0
19	0	-444.2789917	-29.8219986	-15.07291603	-6.250430584	-1.101002336	1.0
20	0	-444.2789917	-29.8219986	-18.94458199	-8.637516022	-1.659179091	1.0
[LeftToeBase]
18	0	-87.28699493	107.1060028	-5.384823799	-3.138819739e-05	2.3568507e-06	1.0
19	0	-87.28699493	107.1060028	-5.368138313	-2.187668179e-05	2.213443167e-06	1.0
20	0	-87.28699493	107.1060028	-5.431398392	-3.603379923e-07	-6.776775763e-07	1.0
[RightUpLeg]
18	-82.07800293	-67.51699829	-15.99599934	-36.1543541	-13.02851963	-3.276756287	1.0
19	-82.07800293	-67.51699829	-15.99599934	-35.7245903	-12.7918396	-6.603031158	1.0
20	-82.07800293	-67.51699829	-15.99599934	-36.61971283	-13.59736919	-10.40090275	1.0
[RightLeg]
18	0	-443.7049866	2.861999989	32.6849823	1.566968679	1.136272192	1.0
19	0	-443.7049866	2.861999989	18.01415443	1.840566397	0.7044890523	1.0
20	0	-443.7049866	2.861999989	8.140284538	0.9347854853	0.07777936012	1.0
[RightFoot]
18	0	-444.2770081	-29.83799934	-3.813820362	-0.2093235701	4.25300312	1.0
19	0	-444.2770081	-29.83799934	-4.178472519	-0.2057913691	7.782174587	1.0
20	0	-444.2770081	-29.83799934	-6.702330112	0.07583749294	9.563132286	1.0
[RightToeBase]
18	0	-87.28699493	107.1060028	-5.885379791	7.748531971e-06	-3.475114227e-06	1.0
19	0	-87.28699493	107.1060028	-4.298112869	2.411415153e-05	1.921288231e-06	1.0
20	0	-87.28699493	107.1060028	-4.632677555	4.994420306e-05	1.070638245e-05	1.0
[EndOfFile]
